<?xml version="1.0" encoding="UTF-8" standalone="no"?>
<!-- Created with Inkscape (http://www.inkscape.org/) -->

<svg
   width="320.08054mm"
   height="75.083069mm"
   viewBox="0 0 320.08054 75.083069"
   version="1.1"
   id="svg621"
   sodipodi:docname="lighthouser.svg"
   xml:space="preserve"
   inkscape:version="1.2.2 (b0a8486541, 2022-12-01)"
   xmlns:inkscape="http://www.inkscape.org/namespaces/inkscape"
   xmlns:sodipodi="http://sodipodi.sourceforge.net/DTD/sodipodi-0.dtd"
   xmlns="http://www.w3.org/2000/svg"
   xmlns:svg="http://www.w3.org/2000/svg"><sodipodi:namedview
     id="namedview623"
     pagecolor="#ffffff"
     bordercolor="#999999"
     borderopacity="1"
     inkscape:showpageshadow="0"
     inkscape:pageopacity="0"
     inkscape:pagecheckerboard="0"
     inkscape:deskcolor="#d1d1d1"
     inkscape:document-units="mm"
     showgrid="false"
     inkscape:zoom="0.21417162"
     inkscape:cx="-261.47255"
     inkscape:cy="1956.375"
     inkscape:window-width="1600"
     inkscape:window-height="769"
     inkscape:window-x="0"
     inkscape:window-y="0"
     inkscape:window-maximized="1"
     inkscape:current-layer="g494-5-1-5-7"
     showguides="false" /><defs
     id="defs618"><rect
       x="-2655.354"
       y="1061.4926"
       width="1554.8983"
       height="184.39368"
       id="rect516-2-2-3-2-6-2-4-3-0-3" /><rect
       x="-2655.354"
       y="1061.4926"
       width="1341.3499"
       height="121.19321"
       id="rect516-2-2-3-2-1-7-6-1-67-9-6" /></defs><g
     inkscape:groupmode="layer"
     id="layer5"
     inkscape:label="Logo pagina"
     transform="translate(-290.10905,-995.23233)"><g
       id="g700-6-7-8-5-0"
       transform="matrix(3.1775775,0,0,3.1775775,1311.2965,-842.6569)"
       inkscape:label="svg"
       inkscape:export-filename="Logo/lighthouser-logo.png"
       inkscape:export-xdpi="238.06511"
       inkscape:export-ydpi="238.06511"><g
         id="g7825-3-6"
         inkscape:label="TEXTO"
         transform="matrix(0.59730767,0,0,0.59730767,-116.96001,236.76938)"
         style="fill:#00194f;fill-opacity:1"><g
           aria-label="LIGHTHOUSER"
           transform="matrix(0.1049572,0,0,0.1049572,-35.825406,465.5383)"
           id="text514-9-1-6-9-9-2-5-5-2"
           style="font-weight:bold;font-size:200px;line-height:0.85;font-family:Oswald;-inkscape-font-specification:'Oswald Bold';text-align:center;white-space:pre;shape-inside:url(#rect516-2-2-3-2-6-2-4-3-0-3);display:inline"><path
             d="m -2438.5047,1207.4908 v -162 h 35.8 v 137.8 h 37.2 v 24.2 z"
             id="path1194" /><path
             d="m -2349.7045,1207.4908 v -162 h 35.8 v 162 z"
             id="path1196" /><path
             d="m -2247.5044,1209.8908 q -16.8,0 -26.6,-7 -9.6,-7 -13.8,-19.6 -4,-12.8 -4,-29.4 v -54.4 q 0,-17.2 4.4,-29.8 4.4,-12.6 15,-19.4 10.8,-7 29.2,-7 18,0 28.2,6 10.4,6 14.8,16.6 4.4,10.6 4.4,24.8 v 10.4 h -35 v -13.2 q 0,-5.2 -0.8,-9.6 -0.6,-4.4 -3.2,-7 -2.4,-2.8 -8,-2.8 -5.8,0 -8.4,3.2 -2.6,3 -3.4,7.6 -0.6,4.6 -0.6,9.6 v 75 q 0,5.4 1,10.2 1.2,4.6 4,7.6 3,2.8 8.4,2.8 5.6,0 8.6,-3 3,-3 4.2,-7.8 1.2,-4.8 1.2,-10.2 v -19 h -14.6 v -21 h 46.8 v 84 h -23.6 l -2,-13.4 q -3.2,6.8 -9.4,11.4 -6.2,4.4 -16.8,4.4 z"
             id="path1198" /><path
             d="m -2172.7042,1207.4908 v -162 h 35.8 v 65.6 h 25.2 v -65.6 h 35.8 v 162 h -35.8 v -70.8 h -25.2 v 70.8 z"
             id="path1200" /><path
             d="m -2036.7041,1207.4908 v -135.4 h -24.4 v -26.6 h 84.6 v 26.6 h -24.2 v 135.4 z"
             id="path1202" /><path
             d="m -1961.7042,1207.4908 v -162 h 35.8 v 65.6 h 25.2 v -65.6 h 35.8 v 162 h -35.8 v -70.8 h -25.2 v 70.8 z"
             id="path1204" /><path
             d="m -1793.904,1209.8908 q -18.2,0 -28.8,-6.4 -10.6,-6.4 -15.2,-18.4 -4.6,-12 -4.6,-28.6 v -60.2 q 0,-16.8 4.6,-28.6 4.6,-11.8 15.2,-18 10.6,-6.4 28.8,-6.4 18.4,0 29,6.4 10.8,6.2 15.4,18 4.6,11.8 4.6,28.6 v 60.2 q 0,16.6 -4.6,28.6 -4.6,12 -15.4,18.4 -10.6,6.4 -29,6.4 z m 0,-25.4 q 5.6,0 8.2,-2.8 2.6,-2.8 3.4,-7.2 0.8,-4.4 0.8,-9 v -78 q 0,-4.8 -0.8,-9 -0.8,-4.4 -3.4,-7.2 -2.6,-2.8 -8.2,-2.8 -5.2,0 -7.8,2.8 -2.6,2.8 -3.4,7.2 -0.8,4.2 -0.8,9 v 78 q 0,4.6 0.6,9 0.8,4.4 3.2,7.2 2.6,2.8 8.2,2.8 z"
             id="path1206" /><path
             d="m -1676.304,1209.8908 q -18.6,0 -29.2,-6 -10.4,-6.2 -14.6,-17.8 -4.2,-11.8 -4.2,-28.8 v -111.8 h 35.4 v 117.2 q 0,5 0.8,10 0.8,5 3.4,8.2 2.8,3.2 8.4,3.2 5.8,0 8.4,-3.2 2.6,-3.2 3.2,-8.2 0.8,-5 0.8,-10 v -117.2 h 35.6 v 111.8 q 0,17 -4.4,28.8 -4.2,11.6 -14.6,17.8 -10.4,6 -29,6 z"
             id="path1208" /><path
             d="m -1562.5041,1209.8908 q -15.2,0 -25.4,-5.4 -10.2,-5.4 -15.4,-16.6 -5.2,-11.4 -5.8,-29.4 l 30.6,-4.6 q 0.2,10.4 1.8,16.8 1.8,6.4 4.8,9.2 3.2,2.8 7.6,2.8 5.6,0 7.2,-3.8 1.8,-3.8 1.8,-8 0,-10 -4.8,-16.8 -4.8,-7 -13,-14 l -14,-12.2 q -9.2,-7.8 -15.6,-17.6 -6.2,-10 -6.2,-24.6 0,-20.6 12.2,-31.4 12.2,-11 33.2,-11 13,0 20.8,4.4 8,4.4 12,11.6 4.2,7 5.6,15 1.6,7.8 1.8,15 l -30.8,3.8 q -0.2,-7.2 -1,-12.4 -0.6,-5.4 -2.8,-8.2 -2.2,-3 -6.8,-3 -5,0 -7.4,4.2 -2.2,4.2 -2.2,8.4 0,9 4.2,14.8 4.4,5.6 11.4,11.8 l 13.4,11.8 q 10.6,9 17.8,20.4 7.4,11.4 7.4,28.2 0,11.4 -5.2,20.8 -5.2,9.2 -14.8,14.6 -9.4,5.4 -22.4,5.4 z"
             id="path1210" /><path
             d="m -1502.7041,1207.4908 v -162 h 72.8 v 24.4 h -37 v 40.2 h 28.2 v 24.8 h -28.2 v 48.4 h 37.4 v 24.2 z"
             id="path1212" /><path
             d="m -1413.304,1207.4908 v -162 h 44.6 q 16.4,0 28.4,3.6 12,3.6 18.6,13 6.8,9.2 6.8,26.2 0,10 -1.6,17.8 -1.6,7.8 -6,13.6 -4.2,5.6 -12.2,9.4 l 22.2,78.4 h -37 l -17.8,-72.6 h -10.2 v 72.6 z m 35.8,-93.2 h 10 q 7.6,0 11.8,-2.6 4.2,-2.8 5.8,-7.8 1.8,-5.2 1.8,-12.4 0,-10.4 -3.8,-16.2 -3.8,-5.8 -14,-5.8 h -11.6 z"
             id="path1214" /></g><g
           aria-label="Páginas Web"
           transform="matrix(0.14446878,0,0,0.14446878,53.550511,444.96572)"
           id="text514-9-1-6-9-2-1-0-9-6-6"
           style="font-size:73.463px;line-height:0.85;font-family:'DejaVu Sans';-inkscape-font-specification:'DejaVu Sans';text-align:center;letter-spacing:24.4876px;white-space:pre;shape-inside:url(#rect516-2-2-3-2-1-7-6-1-67-9-6);display:inline"><path
             d="m -2308.1849,1061.1892 q 10.2848,0 14.9864,4.0404 4.7017,4.0405 4.7017,11.3868 0,4.3343 -1.9835,8.1544 -1.9101,3.7466 -6.5382,6.0974 -4.5547,2.3508 -12.4153,2.3508 h -6.024 v 20.4227 h -6.6116 v -52.4525 z m -0.5877,5.6566 h -6.6852 v 20.7166 h 5.2894 q 7.4932,0 11.1664,-2.4243 3.6731,-2.4243 3.6731,-8.2279 0,-5.0689 -3.2324,-7.5666 -3.2323,-2.4978 -10.2113,-2.4978 z"
             style="font-family:'Lohit Assamese';-inkscape-font-specification:'Lohit Assamese'"
             id="path1217" /><path
             d="m -2239.1053,1073.6044 q 7.1994,0 10.6521,3.1589 3.4528,3.1589 3.4528,10.0645 v 26.8139 h -4.7017 l -1.2488,-5.5831 h -0.2939 q -2.5712,3.2323 -5.4362,4.7751 -2.7916,1.5427 -7.7871,1.5427 -5.3628,0 -8.889,-2.7916 -3.5263,-2.8651 -3.5263,-8.889 0,-5.8771 4.6282,-9.036 4.6282,-3.2324 14.2518,-3.5262 l 6.6852,-0.2204 v -2.3508 q 0,-4.922 -2.1305,-6.8321 -2.1304,-1.91 -6.0239,-1.91 -3.0855,0 -5.8771,0.955 -2.7916,0.8816 -5.2158,2.057 l -1.9835,-4.8486 q 2.5712,-1.3958 6.0974,-2.3508 3.5262,-1.0285 7.3463,-1.0285 z m 1.91,21.0104 q -7.3463,0.2939 -10.2113,2.3508 -2.7916,2.057 -2.7916,5.8036 0,3.3059 1.9835,4.8486 2.0569,1.5427 5.2158,1.5427 4.9955,0 8.3014,-2.7181 3.3058,-2.7916 3.3058,-8.5217 v -3.5263 z m 7.934,-36.5111 q -0.8815,1.3224 -2.7181,3.4528 -1.8366,2.0569 -3.967,4.1874 -2.057,2.0569 -3.8201,3.3793 h -4.2608 v -0.8816 q 1.1019,-1.3958 2.3508,-3.3058 1.3223,-1.9101 2.5712,-3.8936 1.2489,-2.0569 2.0569,-3.6731 h 7.7871 z"
             style="font-family:'Lohit Assamese';-inkscape-font-specification:'Lohit Assamese'"
             id="path1219" /><path
             d="m -2174.3599,1073.531 q 3.8935,0 6.979,1.4692 3.1589,1.4693 5.3628,4.4813 h 0.3673 l 0.8815,-5.2159 h 5.1424 v 40.0373 q 0,8.4483 -4.3343,12.7091 -4.2608,4.2609 -13.2968,4.2609 -8.6686,0 -14.1783,-2.4978 v -5.9505 q 5.8035,3.0855 14.5456,3.0855 5.069,0 7.934,-3.012 2.9386,-2.9385 2.9386,-8.0809 v -1.5428 q 0,-0.8815 0.073,-2.4977 0.073,-1.6897 0.1469,-2.3508 h -0.2938 q -3.967,5.9505 -12.1949,5.9505 -7.6401,0 -11.9744,-5.3628 -4.2609,-5.3628 -4.2609,-14.9865 0,-9.4032 4.2609,-14.913 4.3343,-5.5831 11.901,-5.5831 z m 0.8815,5.4362 q -4.922,0 -7.6401,3.967 -2.7182,3.8936 -2.7182,11.1664 0,7.2728 2.6447,11.1664 2.7181,3.82 7.8606,3.82 5.9505,0 8.6686,-3.1589 2.7181,-3.2323 2.7181,-10.3583 v -1.5427 q 0,-8.0809 -2.7916,-11.5337 -2.7916,-3.5262 -8.7421,-3.5262 z"
             style="font-family:'Lohit Assamese';-inkscape-font-specification:'Lohit Assamese'"
             id="path1221" /><path
             d="m -2115.3447,1059.4995 q 1.4692,0 2.5712,1.0285 1.1754,0.955 1.1754,3.0854 0,2.057 -1.1754,3.0855 -1.102,1.0285 -2.5712,1.0285 -1.6162,0 -2.7182,-1.0285 -1.1019,-1.0285 -1.1019,-3.0855 0,-2.1304 1.1019,-3.0854 1.102,-1.0285 2.7182,-1.0285 z m 3.1589,14.7661 v 39.3761 h -6.4648 v -39.3761 z"
             style="font-family:'Lohit Assamese';-inkscape-font-specification:'Lohit Assamese'"
             id="path1223" /><path
             d="m -2056.2561,1073.531 q 7.0524,0 10.6521,3.4527 3.5997,3.3793 3.5997,11.0195 v 25.6385 h -6.3913 v -25.1978 q 0,-9.4767 -8.8155,-9.4767 -6.5382,0 -9.036,3.6732 -2.4977,3.6731 -2.4977,10.5786 v 20.4227 h -6.4648 v -39.3761 h 5.2159 l 0.955,5.3628 h 0.3673 q 1.9101,-3.0855 5.2894,-4.5547 3.3793,-1.5427 7.1259,-1.5427 z"
             style="font-family:'Lohit Assamese';-inkscape-font-specification:'Lohit Assamese'"
             id="path1225" /><path
             d="m -1990.4088,1073.6044 q 7.1993,0 10.6521,3.1589 3.4528,3.1589 3.4528,10.0645 v 26.8139 h -4.7017 l -1.2489,-5.5831 h -0.2938 q -2.5712,3.2323 -5.4363,4.7751 -2.7916,1.5427 -7.787,1.5427 -5.3628,0 -8.8891,-2.7916 -3.5262,-2.8651 -3.5262,-8.889 0,-5.8771 4.6282,-9.036 4.6281,-3.2324 14.2518,-3.5262 l 6.6851,-0.2204 v -2.3508 q 0,-4.922 -2.1304,-6.8321 -2.1304,-1.91 -6.024,-1.91 -3.0854,0 -5.877,0.955 -2.7916,0.8816 -5.2159,2.057 l -1.9835,-4.8486 q 2.5712,-1.3958 6.0975,-2.3508 3.5262,-1.0285 7.3463,-1.0285 z m 1.91,21.0104 q -7.3463,0.2939 -10.2114,2.3508 -2.7916,2.057 -2.7916,5.8036 0,3.3059 1.9835,4.8486 2.057,1.5427 5.2159,1.5427 4.9955,0 8.3013,-2.7181 3.3059,-2.7916 3.3059,-8.5217 v -3.5263 z"
             style="font-family:'Lohit Assamese';-inkscape-font-specification:'Lohit Assamese'"
             id="path1227" /><path
             d="m -1913.9828,1102.7692 q 0,5.7301 -4.2609,8.6687 -4.2608,2.9385 -11.4602,2.9385 -4.1139,0 -7.1259,-0.6612 -2.9385,-0.6612 -5.2159,-1.8366 v -5.877 q 2.3508,1.1754 5.6566,2.2039 3.3793,0.955 6.8321,0.955 4.922,0 7.1259,-1.5427 2.2039,-1.6162 2.2039,-4.2609 0,-1.4692 -0.8081,-2.6446 -0.8081,-1.1754 -2.9385,-2.3509 -2.057,-1.1754 -5.9505,-2.6446 -3.8201,-1.4693 -6.5382,-2.9385 -2.7181,-1.4693 -4.1874,-3.5263 -1.4693,-2.0569 -1.4693,-5.2893 0,-4.9955 4.0405,-7.7136 4.1139,-2.7181 10.7256,-2.7181 3.5997,0 6.6851,0.7346 3.1589,0.6611 5.8771,1.91 l -2.2039,5.1424 q -2.4978,-1.0285 -5.2159,-1.7631 -2.7181,-0.7346 -5.5832,-0.7346 -3.967,0 -6.0974,1.3223 -2.057,1.2489 -2.057,3.4528 0,1.6162 0.955,2.7916 0.9551,1.1019 3.159,2.2039 2.2773,1.0284 6.0239,2.4977 3.7466,1.3958 6.3913,2.8651 2.6447,1.4692 4.0405,3.5997 1.3958,2.0569 1.3958,5.2158 z"
             style="font-family:'Lohit Assamese';-inkscape-font-specification:'Lohit Assamese'"
             id="path1229" /><path
             d="m -1775.2358,1061.1892 -13.958,52.4525 h -6.6851 l -10.2114,-34.3806 q -0.5877,-2.1305 -1.1754,-4.2609 -0.5877,-2.1304 -0.955,-3.7466 -0.3673,-1.6897 -0.5143,-2.3508 -0.073,0.955 -0.8081,4.1139 -0.6611,3.0855 -1.6896,6.4648 l -9.9175,34.1602 h -6.6851 l -13.8845,-52.4525 h 6.9055 l 8.1544,32.0298 q 0.8815,3.3793 1.4692,6.5382 0.6612,3.1589 1.0285,5.9505 0.3673,-2.865 1.102,-6.2443 0.7346,-3.3793 1.6896,-6.6117 l 9.2563,-31.6625 h 6.8321 l 9.6237,31.8829 q 1.0284,3.3793 1.7631,6.7586 0.7346,3.3058 1.1019,5.877 0.3673,-2.7181 1.0285,-5.877 0.6612,-3.2324 1.5427,-6.6851 l 8.0809,-31.9564 z"
             style="font-family:'Lohit Assamese';-inkscape-font-specification:'Lohit Assamese'"
             id="path1231" /><path
             d="m -1729.8113,1073.531 q 5.069,0 8.6687,2.2038 3.6731,2.2039 5.5831,6.2444 1.9835,3.967 1.9835,9.3298 v 3.8935 h -26.9609 q 0.1469,6.6852 3.3793,10.2114 3.3059,3.4528 9.1829,3.4528 3.7466,0 6.6117,-0.6612 2.9385,-0.7346 6.0239,-2.057 v 5.6567 q -3.012,1.3223 -5.9505,1.91 -2.9385,0.6612 -6.979,0.6612 -5.5831,0 -9.9175,-2.2774 -4.2608,-2.2773 -6.6851,-6.7586 -2.3508,-4.5547 -2.3508,-11.0929 0,-6.4647 2.1304,-11.0929 2.2039,-4.6282 6.0974,-7.1259 3.967,-2.4977 9.1829,-2.4977 z m -0.073,5.2893 q -4.6282,0 -7.3463,3.012 -2.6447,2.9385 -3.159,8.2278 h 20.0554 q -0.073,-4.9955 -2.3508,-8.0809 -2.2773,-3.1589 -7.1993,-3.1589 z"
             style="font-family:'Lohit Assamese';-inkscape-font-specification:'Lohit Assamese'"
             id="path1233" /><path
             d="m -1672.6327,1071.4005 q 0,2.4978 -0.1469,4.7017 -0.073,2.1304 -0.2204,3.3793 h 0.3673 q 1.6896,-2.4978 4.6281,-4.1874 2.9386,-1.6897 7.5667,-1.6897 7.3463,0 11.7541,5.1424 4.4813,5.069 4.4813,15.2069 0,10.1379 -4.4813,15.2803 -4.4812,5.1424 -11.7541,5.1424 -4.6281,0 -7.5667,-1.6897 -2.9385,-1.6896 -4.6281,-4.0404 h -0.5143 l -1.3223,4.9954 h -4.6282 v -55.8318 h 6.4648 z m 11.0929,7.5667 q -6.2444,0 -8.6686,3.5997 -2.4243,3.5997 -2.4243,11.1664 v 0.2938 q 0,7.2729 2.3508,11.1664 2.4243,3.8201 8.889,3.8201 5.2894,0 7.8606,-3.8936 2.6446,-3.8935 2.6446,-11.2398 0,-14.913 -10.6521,-14.913 z"
             style="font-family:'Lohit Assamese';-inkscape-font-specification:'Lohit Assamese'"
             id="path1235" /></g></g><g
         id="g1557-5-2-1"
         inkscape:label="logo faro"
         transform="matrix(0.20437704,0,0,0.20437704,-223.72864,491.28754)"><path
           id="path9103-5-9-9-8"
           style="display:inline;fill:#00194f;stroke-width:20.2085;stroke-linecap:round;paint-order:fill markers stroke"
           inkscape:label="dark circle"
           transform="translate(-1.0625e-8,0.23909178)"
           d="m -362.15077,483.7692 a 57.807392,57.807392 0 0 1 -57.80739,57.80739 57.807392,57.807392 0 0 1 -57.80739,-57.80739 57.807392,57.807392 0 0 1 57.80739,-57.8074 57.807392,57.807392 0 0 1 57.80739,57.8074 z" /><path
           id="path7018-7-1-7"
           style="opacity:1;fill:#87cdde;stroke-width:3.32936;stroke-linecap:square;stroke-miterlimit:2;paint-order:markers stroke fill"
           d="m -378.6684,472.05276 a 41.289333,41.289333 0 0 1 -41.28933,41.28934 41.289333,41.289333 0 0 1 -41.28934,-41.28934 41.289333,41.289333 0 0 1 41.28934,-41.28933 41.289333,41.289333 0 0 1 41.28933,41.28933 z" /><path
           id="path1561-7-2-9"
           style="display:none;fill:#ffffff;fill-opacity:1;stroke-width:54.6163;stroke-linecap:round;paint-order:fill markers stroke"
           inkscape:label="white circle"
           d="m -419.95764,429.41482 a 40.327873,40.327873 0 0 0 -40.32777,40.32829 40.327873,40.327873 0 0 0 26.71413,37.93205 l 1.36064,-11.0386 v -37.52949 l 12.62972,-7.29155 12.62972,7.29155 v 37.52949 l 1.32912,10.78539 a 40.327873,40.327873 0 0 0 25.99221,-37.67884 40.327873,40.327873 0 0 0 -40.32777,-40.32829 z" /><path
           id="path1469-3-2-7-6-7-2"
           style="display:inline;fill:#00194f;fill-opacity:1;stroke:#00194f;stroke-width:2.99999;stroke-linecap:butt;stroke-linejoin:miter;stroke-dasharray:none;stroke-opacity:1"
           d="m -419.58143,450.48746 -12.62973,7.29207 v 0.0902 h 2.40022 l 0.1714,24.19008 h -2.572 l 3.8e-4,13.24883 -5.20382,42.22563 c 5.64568,1.79381 11.53354,2.70917 17.45734,2.71404 6.17919,-0.011 12.31666,-1.01259 18.17873,-2.96674 l -5.17281,-41.97315 1.8e-4,-13.24861 h -2.572 v -24.19008 h 2.57183 v -0.0903 z"
           sodipodi:nodetypes="ccccccccccccccccc" /></g></g></g></svg>
